<svg xmlns="http://www.w3.org/2000/svg" viewBox="0 0 64 64" role="img" aria-label="LexFive">
  <defs>
    <linearGradient id="eBg" x1="0" y1="0" x2="0" y2="1"><stop offset="0" stop-color="#16273d"/><stop offset="1" stop-color="#0e1b2c"/></linearGradient>
    <linearGradient id="eGold" x1="0" y1="0" x2="1" y2="1"><stop offset="0" stop-color="#e7d3a1"/><stop offset="0.5" stop-color="#c2a25a"/><stop offset="1" stop-color="#a8853c"/></linearGradient>
  </defs>
  <rect width="64" height="64" rx="13" fill="url(#eBg)"/>
  <rect x="2" y="2" width="60" height="60" rx="11" fill="none" stroke="url(#eGold)" stroke-width="1.4"/>
  <g fill="none" stroke="url(#eGold)" stroke-linecap="round" stroke-linejoin="round">
    <path d="M14 15 L6 33 L14 51" stroke-width="2.6" opacity="0.8"/>
    <path d="M50 15 L58 33 L50 51" stroke-width="2.6" opacity="0.8"/>
    <path d="M32 13 L32 48" stroke-width="2.8"/>
    <path d="M19 20 L45 20" stroke-width="2.8"/>
    <path d="M19 20 L14 30 M19 20 L24 30" stroke-width="1.5"/>
    <path d="M45 20 L40 30 M45 20 L50 30" stroke-width="1.5"/>
    <path d="M12 30 Q19 39 26 30" stroke-width="2.2"/>
    <path d="M38 30 Q45 39 52 30" stroke-width="2.2"/>
    <path d="M24 48 L40 48" stroke-width="3.2"/>
    <path d="M27 52 L37 52" stroke-width="2.4"/>
  </g>
  <circle cx="32" cy="12" r="3" fill="url(#eGold)"/>
</svg>
