<svg xmlns="http://www.w3.org/2000/svg" viewBox="0 0 200 200" role="img" aria-label="Sello LexFive Abogados con mazo del juez">
  <defs>
    <path id="s2Top" d="M 28 100 A 72 72 0 0 1 172 100" fill="none"/>
    <path id="s2Bottom" d="M 36 100 A 64 64 0 0 0 164 100" fill="none"/>
  </defs>
  <g fill="none" stroke="#0e1b2c" stroke-width="2.4">
    <circle cx="100" cy="100" r="93"/>
    <circle cx="100" cy="100" r="80"/>
  </g>
  <g fill="#0e1b2c" font-family="Georgia, 'Times New Roman', serif" font-weight="700">
    <text font-size="15" letter-spacing="3">
      <textPath href="#s2Top" startOffset="50%" text-anchor="middle">LEXFIVE · ABOGADOS</textPath>
    </text>
    <text font-size="10" letter-spacing="2">
      <textPath href="#s2Bottom" startOffset="50%" text-anchor="middle">BUFETE JURÍDICO · BOLIVIA</textPath>
    </text>
  </g>
  <g fill="#0e1b2c"><circle cx="33" cy="100" r="2.6"/><circle cx="167" cy="100" r="2.6"/></g>
  <!-- Mazo del juez central -->
  <g fill="none" stroke="#0e1b2c" stroke-width="3.4" stroke-linecap="round" stroke-linejoin="round">
    <rect x="86" y="58" width="44" height="20" rx="4.5" transform="rotate(45 108 68)"/>
    <path d="M93 64 L108 79 M118 54 L133 69" stroke-width="2.2"/>
    <path d="M86 84 L62 108" stroke-width="4"/>
    <path d="M55 124 L96 124" stroke-width="5"/>
    <path d="M63 116 L88 116" stroke-width="3"/>
  </g>
  <!-- estrellas decorativas -->
  <g fill="#0e1b2c"><circle cx="100" cy="150" r="2.6"/></g>
</svg>
