<svg xmlns="http://www.w3.org/2000/svg" viewBox="0 0 280 200" role="img" aria-label="Sello ovalado LexFive Abogados">
  <defs>
    <path id="s3top" d="M 30 100 A 110 70 0 0 1 250 100"/>
    <path id="s3bot" d="M 36 100 A 104 64 0 0 0 244 100"/>
  </defs>
  <g fill="none" stroke="#122a44" stroke-width="3">
    <ellipse cx="140" cy="100" rx="134" ry="94"/>
    <ellipse cx="140" cy="100" rx="124" ry="84"/>
  </g>
  <g fill="#122a44" font-family="Georgia, 'Times New Roman', serif" font-weight="700">
    <text font-size="19" letter-spacing="3"><textPath href="#s3top" startOffset="50%" text-anchor="middle">LEXFIVE · ABOGADOS</textPath></text>
    <text font-size="12" letter-spacing="2.4"><textPath href="#s3bot" startOffset="50%" text-anchor="middle">LA PAZ — BOLIVIA</textPath></text>
  </g>
  <g fill="#122a44"><circle cx="20" cy="100" r="3.2"/><circle cx="260" cy="100" r="3.2"/></g>
  <!-- Balanza centrada -->
  <g fill="none" stroke="#122a44" stroke-width="3.6" stroke-linecap="round" stroke-linejoin="round">
    <path d="M140 60 L140 132"/>
    <path d="M104 72 L176 72"/>
    <path d="M104 72 L95 89 M104 72 L113 89"/>
    <path d="M176 72 L167 89 M176 72 L185 89"/>
    <path d="M89 89 Q104 104 119 89"/>
    <path d="M161 89 Q176 104 191 89"/>
    <path d="M124 132 L156 132"/>
    <path d="M116 138 L164 138"/>
  </g>
  <circle cx="140" cy="57" r="4.2" fill="#122a44"/>
  <circle cx="140" cy="72" r="3" fill="#122a44"/>
</svg>
