<svg xmlns="http://www.w3.org/2000/svg" viewBox="0 0 240 240" role="img" aria-label="Sello clasico LexFive Abogados">
  <defs>
    <path id="s1top" d="M 36 120 A 84 84 0 0 1 204 120"/>
    <path id="s1bot" d="M 38 120 A 82 82 0 0 0 202 120"/>
  </defs>
  <g fill="none" stroke="#122a44" stroke-width="3">
    <circle cx="120" cy="120" r="114"/>
    <circle cx="120" cy="120" r="104"/>
    <circle cx="120" cy="120" r="72"/>
  </g>
  <g fill="#122a44" font-family="Georgia, 'Times New Roman', serif" font-weight="700">
    <text font-size="20" letter-spacing="3.5"><textPath href="#s1top" startOffset="50%" text-anchor="middle">LEXFIVE · ABOGADOS</textPath></text>
    <text font-size="13" letter-spacing="3"><textPath href="#s1bot" startOffset="50%" text-anchor="middle">LA PAZ — BOLIVIA</textPath></text>
  </g>
  <!-- Estrellas separadoras a 3 y 9 en punto -->
  <g fill="#122a44">
    <path d="M40 120 l2.2 4.5 4.9 .7 -3.6 3.5 .9 4.9 -4.4 -2.3 -4.4 2.3 .9 -4.9 -3.6 -3.5 4.9 -.7z"/>
    <path d="M200 120 l2.2 4.5 4.9 .7 -3.6 3.5 .9 4.9 -4.4 -2.3 -4.4 2.3 .9 -4.9 -3.6 -3.5 4.9 -.7z"/>
  </g>
  <!-- Balanza de la justicia centrada -->
  <g fill="none" stroke="#122a44" stroke-width="4" stroke-linecap="round" stroke-linejoin="round">
    <path d="M120 78 L120 150"/>
    <path d="M82 90 L158 90"/>
    <path d="M82 90 L72 108 M82 90 L92 108"/>
    <path d="M158 90 L148 108 M158 90 L168 108"/>
    <path d="M66 108 Q82 124 98 108"/>
    <path d="M142 108 Q158 124 174 108"/>
    <path d="M104 150 L136 150"/>
    <path d="M96 156 L144 156"/>
  </g>
  <circle cx="120" cy="75" r="4.5" fill="#122a44"/>
  <circle cx="120" cy="90" r="3.2" fill="#122a44"/>
</svg>
