<svg xmlns="http://www.w3.org/2000/svg" viewBox="0 0 240 240" role="img" aria-label="Sello LexFive Abogados Derecho y Tecnologia">
  <defs>
    <path id="s4top" d="M 36 120 A 84 84 0 0 1 204 120"/>
    <path id="s4bot" d="M 40 120 A 80 80 0 0 0 200 120"/>
  </defs>
  <g fill="none" stroke="#122a44" stroke-width="3">
    <circle cx="120" cy="120" r="114"/>
    <circle cx="120" cy="120" r="104"/>
    <circle cx="120" cy="120" r="74"/>
  </g>
  <g fill="#122a44" font-family="Georgia, 'Times New Roman', serif" font-weight="700">
    <text font-size="20" letter-spacing="3.5"><textPath href="#s4top" startOffset="50%" text-anchor="middle">LEXFIVE · ABOGADOS</textPath></text>
    <text font-size="11.5" letter-spacing="2"><textPath href="#s4bot" startOffset="50%" text-anchor="middle">DERECHO &amp; TECNOLOGÍA · BOLIVIA</textPath></text>
  </g>
  <g fill="#122a44"><circle cx="40" cy="120" r="3.4"/><circle cx="200" cy="120" r="3.4"/></g>
  <!-- Balanza centrada -->
  <g fill="none" stroke="#122a44" stroke-width="3.8" stroke-linecap="round" stroke-linejoin="round">
    <path d="M120 80 L120 148"/>
    <path d="M86 92 L154 92"/>
    <path d="M86 92 L77 109 M86 92 L95 109"/>
    <path d="M154 92 L145 109 M154 92 L163 109"/>
    <path d="M71 109 Q86 124 101 109"/>
    <path d="M139 109 Q154 124 169 109"/>
    <path d="M106 148 L134 148"/>
    <path d="M98 154 L142 154"/>
  </g>
  <circle cx="120" cy="77" r="4.2" fill="#122a44"/>
  <circle cx="120" cy="92" r="3" fill="#122a44"/>
  <!-- Nodos de circuito (Sistemas) -->
  <g fill="none" stroke="#122a44" stroke-width="2" stroke-linecap="round" stroke-linejoin="round" opacity="0.9">
    <path d="M62 120 L74 120 M166 120 L178 120"/>
  </g>
  <g fill="#122a44"><circle cx="62" cy="120" r="3"/><circle cx="178" cy="120" r="3"/></g>
</svg>
