<svg xmlns="http://www.w3.org/2000/svg" viewBox="0 0 64 64" role="img" aria-label="LexFive - Balanza de la justicia con codigo">
  <defs>
    <linearGradient id="ds1bg" x1="0" y1="0" x2="0" y2="1"><stop offset="0" stop-color="#16273d"/><stop offset="1" stop-color="#0e1b2c"/></linearGradient>
    <linearGradient id="ds1gold" x1="0" y1="0" x2="1" y2="1"><stop offset="0" stop-color="#e7d3a1"/><stop offset="0.5" stop-color="#c2a25a"/><stop offset="1" stop-color="#a8853c"/></linearGradient>
  </defs>
  <rect width="64" height="64" rx="13" fill="url(#ds1bg)"/>
  <rect x="2" y="2" width="60" height="60" rx="11" fill="none" stroke="url(#ds1gold)" stroke-width="1.4"/>
  <g fill="none" stroke="url(#ds1gold)" stroke-linecap="round" stroke-linejoin="round">
    <!-- Eje y brazo de la balanza -->
    <path d="M32 12 L32 44" stroke-width="2.8"/>
    <path d="M16 19 L48 19" stroke-width="2.8"/>
    <path d="M16 19 L11 29 M16 19 L21 29" stroke-width="1.4"/>
    <path d="M48 19 L43 29 M48 19 L53 29" stroke-width="1.4"/>
    <!-- Platillos -->
    <path d="M9 29 Q16 38 23 29" stroke-width="2"/>
    <path d="M41 29 Q48 38 55 29" stroke-width="2"/>
    <path d="M22 44 L42 44" stroke-width="3"/>
    <path d="M26 48 L38 48" stroke-width="2.2"/>
  </g>
  <!-- Simbolo de codigo </> integrado en el centro (ingenieria en sistemas) -->
  <g fill="none" stroke="url(#ds1gold)" stroke-width="1.7" stroke-linecap="round" stroke-linejoin="round">
    <path d="M28.5 30 L25 33.5 L28.5 37"/>
    <path d="M35.5 30 L39 33.5 L35.5 37"/>
    <path d="M33 28.5 L31 39" stroke-width="1.4"/>
  </g>
  <circle cx="32" cy="11" r="3" fill="url(#ds1gold)"/>
  <text x="32" y="61" text-anchor="middle" font-family="Georgia, serif" font-size="6.4" font-weight="700" letter-spacing="2.2" fill="url(#ds1gold)">LEXFIVE</text>
</svg>
