<svg xmlns="http://www.w3.org/2000/svg" viewBox="0 0 64 64" role="img" aria-label="LexFive - Balanza de la justicia">
  <defs>
    <linearGradient id="l1bg" x1="0" y1="0" x2="0" y2="1"><stop offset="0" stop-color="#1a2f49"/><stop offset="1" stop-color="#0d1826"/></linearGradient>
    <linearGradient id="l1gold" x1="0" y1="0" x2="0" y2="1"><stop offset="0" stop-color="#eAdBb0"/><stop offset="0.45" stop-color="#cBa765"/><stop offset="1" stop-color="#a07f3a"/></linearGradient>
  </defs>
  <rect width="64" height="64" rx="14" fill="url(#l1bg)"/>
  <rect x="3.25" y="3.25" width="57.5" height="57.5" rx="11" fill="none" stroke="url(#l1gold)" stroke-width="0.8" opacity="0.55"/>
  <circle cx="32" cy="26" r="17.5" fill="none" stroke="url(#l1gold)" stroke-width="1.4"/>
  <g fill="none" stroke="url(#l1gold)" stroke-width="1.9" stroke-linecap="round" stroke-linejoin="round">
    <path d="M32 13.6 L32 38.2"/>
    <path d="M20 19 L44 19"/>
    <path d="M20 19 L16.5 26 M20 19 L23.5 26"/>
    <path d="M44 19 L40.5 26 M44 19 L47.5 26"/>
    <path d="M14.8 26 Q20 31.4 25.2 26"/>
    <path d="M38.8 26 Q44 31.4 49.2 26"/>
    <path d="M27 38.2 L37 38.2"/>
    <path d="M24.5 40.8 L39.5 40.8"/>
  </g>
  <circle cx="32" cy="12.6" r="2.1" fill="url(#l1gold)"/>
  <circle cx="32" cy="19" r="1.5" fill="url(#l1gold)"/>
  <circle cx="20" cy="19" r="1.3" fill="url(#l1gold)"/>
  <circle cx="44" cy="19" r="1.3" fill="url(#l1gold)"/>
  <text x="32" y="58.6" text-anchor="middle" font-family="Georgia, 'Times New Roman', serif" font-size="8" font-weight="700" letter-spacing="3" fill="url(#l1gold)">LEXFIVE</text>
</svg>
