<svg xmlns="http://www.w3.org/2000/svg" viewBox="0 0 64 64" role="img" aria-label="LexFive - Búho con circuito">
  <defs>
    <linearGradient id="d12bg" x1="0" y1="0" x2="0" y2="1"><stop offset="0" stop-color="#1a2f49"/><stop offset="1" stop-color="#0d1826"/></linearGradient>
    <linearGradient id="d12g" x1="0" y1="0" x2="0" y2="1"><stop offset="0" stop-color="#eadbb0"/><stop offset="0.45" stop-color="#cba765"/><stop offset="1" stop-color="#a07f3a"/></linearGradient>
  </defs>
  <rect width="64" height="64" rx="14" fill="url(#d12bg)"/>
  <rect x="3.25" y="3.25" width="57.5" height="57.5" rx="11" fill="none" stroke="url(#d12g)" stroke-width="0.8" opacity="0.55"/>
  <!-- Circuito lateral (ingeniería en sistemas) -->
  <g stroke="url(#d12g)" stroke-width="0.8" fill="none" opacity="0.6">
    <path d="M9 22 L14 22 L17 25 M9 31 L13 31 M55 22 L50 22 L47 25 M55 31 L51 31"/>
  </g>
  <g fill="url(#d12g)" opacity="0.6"><circle cx="9" cy="22" r="1.1"/><circle cx="9" cy="31" r="1.1"/><circle cx="55" cy="22" r="1.1"/><circle cx="55" cy="31" r="1.1"/></g>
  <text x="32" y="12" text-anchor="middle" font-family="'Courier New', monospace" font-size="3" fill="url(#d12g)" opacity="0.6">10101 LEX</text>
  <!-- Búho -->
  <g fill="url(#d12g)"><path d="M23 16 L27 9.5 L30 16 Z"/><path d="M41 16 L37 9.5 L34 16 Z"/></g>
  <ellipse cx="32" cy="26" rx="13" ry="13" fill="none" stroke="url(#d12g)" stroke-width="1.9"/>
  <g fill="none" stroke="url(#d12g)" stroke-width="1.7" stroke-linecap="round">
    <path d="M21 19.5 L26.4 22.6"/><path d="M43 19.5 L37.6 22.6"/>
  </g>
  <circle cx="26.4" cy="25" r="4.8" fill="#0d1826" stroke="url(#d12g)" stroke-width="1.5"/>
  <circle cx="37.6" cy="25" r="4.8" fill="#0d1826" stroke="url(#d12g)" stroke-width="1.5"/>
  <circle cx="26.4" cy="25" r="2.1" fill="url(#d12g)"/>
  <circle cx="37.6" cy="25" r="2.1" fill="url(#d12g)"/>
  <path d="M30.4 28 L33.6 28 L32 32 Z" fill="url(#d12g)"/>
  <g fill="none" stroke="url(#d12g)" stroke-width="1.2" stroke-linecap="round" stroke-linejoin="round">
    <path d="M26 34.5 L32 37.5 L38 34.5"/>
    <path d="M28 37.8 L32 39.8 L36 37.8"/>
  </g>
  <text x="32" y="58.6" text-anchor="middle" font-family="Georgia, 'Times New Roman', serif" font-size="8" font-weight="700" letter-spacing="3" fill="url(#d12g)">LEXFIVE</text>
</svg>
