<svg xmlns="http://www.w3.org/2000/svg" viewBox="0 0 64 64" role="img" aria-label="LexFive - Monograma L5 en circuito">
  <defs>
    <linearGradient id="ds2bg" x1="0" y1="0" x2="0" y2="1"><stop offset="0" stop-color="#16273d"/><stop offset="1" stop-color="#0e1b2c"/></linearGradient>
    <linearGradient id="ds2gold" x1="0" y1="0" x2="1" y2="1"><stop offset="0" stop-color="#e7d3a1"/><stop offset="0.5" stop-color="#c2a25a"/><stop offset="1" stop-color="#a8853c"/></linearGradient>
  </defs>
  <rect width="64" height="64" rx="13" fill="url(#ds2bg)"/>
  <rect x="2" y="2" width="60" height="60" rx="11" fill="none" stroke="url(#ds2gold)" stroke-width="1.4"/>
  <!-- Pistas de circuito con nodos (ingenieria en sistemas) -->
  <g fill="none" stroke="url(#ds2gold)" stroke-width="1.2" stroke-linecap="round" stroke-linejoin="round" opacity="0.7">
    <path d="M10 16 L14 16 L14 22"/>
    <path d="M54 16 L50 16 L50 24"/>
    <path d="M10 48 L16 48 L16 42"/>
    <path d="M54 48 L48 48 L48 40"/>
  </g>
  <g fill="url(#ds2gold)" opacity="0.7">
    <circle cx="10" cy="16" r="1.6"/><circle cx="54" cy="16" r="1.6"/>
    <circle cx="10" cy="48" r="1.6"/><circle cx="54" cy="48" r="1.6"/>
  </g>
  <!-- Monograma L5 -->
  <text x="32" y="38" text-anchor="middle" font-family="Georgia, 'Times New Roman', serif" font-size="27" font-weight="700" fill="url(#ds2gold)">L5</text>
  <!-- Balanza compacta debajo (derecho) -->
  <g fill="none" stroke="url(#ds2gold)" stroke-linecap="round" stroke-linejoin="round">
    <path d="M32 39 L32 47" stroke-width="2"/>
    <path d="M24 42 L40 42" stroke-width="2"/>
    <path d="M19 42 Q24 47 29 42" stroke-width="1.4"/>
    <path d="M35 42 Q40 47 45 42" stroke-width="1.4"/>
    <path d="M27 47 L37 47" stroke-width="2.2"/>
  </g>
  <text x="32" y="60.5" text-anchor="middle" font-family="Georgia, serif" font-size="6" font-weight="700" letter-spacing="1.8" fill="url(#ds2gold)">LEXFIVE</text>
</svg>
