<svg xmlns="http://www.w3.org/2000/svg" viewBox="0 0 64 64" role="img" aria-label="LexFive - Mazo del juez y senal digital">
  <defs>
    <linearGradient id="l3bg" x1="0" y1="0" x2="0" y2="1"><stop offset="0" stop-color="#1a2f49"/><stop offset="1" stop-color="#0d1826"/></linearGradient>
    <linearGradient id="l3gold" x1="0" y1="0" x2="0" y2="1"><stop offset="0" stop-color="#ecdcb2"/><stop offset="0.45" stop-color="#cba765"/><stop offset="1" stop-color="#a07f3a"/></linearGradient>
  </defs>
  <rect width="64" height="64" rx="14" fill="url(#l3bg)"/>
  <rect x="3.25" y="3.25" width="57.5" height="57.5" rx="11" fill="none" stroke="url(#l3gold)" stroke-width="0.8" opacity="0.55"/>
  <circle cx="32" cy="26" r="17.5" fill="none" stroke="url(#l3gold)" stroke-width="1.4"/>
  <!-- Mazo del juez centrado en diagonal equilibrada -->
  <g fill="none" stroke="url(#l3gold)" stroke-width="2" stroke-linecap="round" stroke-linejoin="round">
    <rect x="30.5" y="13.5" width="15.5" height="8" rx="2" transform="rotate(45 38.25 17.5)"/>
    <path d="M35 16 L40.5 21.5" stroke-width="1.3"/>
    <path d="M33.2 22.6 L24.5 31.3"/>
    <path d="M20.5 35.5 L33.5 35.5"/>
    <path d="M23.5 32.5 L30.5 32.5" stroke-width="1.5"/>
  </g>
  <!-- Senal / pulso digital simetrico (Ingenieria en Sistemas) -->
  <g fill="none" stroke="url(#l3gold)" stroke-width="1.5" stroke-linecap="round" stroke-linejoin="round" opacity="0.92">
    <path d="M16.5 42 L23 42 L26 37.5 L31 46 L34 42 L40 42 L42.5 39 L45 42 L47.5 42"/>
  </g>
  <text x="32" y="58.6" text-anchor="middle" font-family="Georgia, 'Times New Roman', serif" font-size="8" font-weight="700" letter-spacing="3" fill="url(#l3gold)">LEXFIVE</text>
</svg>
