<svg xmlns="http://www.w3.org/2000/svg" viewBox="0 0 64 64" role="img" aria-label="LexFive - Mazo del juez y senal digital">
  <defs>
    <linearGradient id="ds3bg" x1="0" y1="0" x2="0" y2="1"><stop offset="0" stop-color="#16273d"/><stop offset="1" stop-color="#0e1b2c"/></linearGradient>
    <linearGradient id="ds3gold" x1="0" y1="0" x2="1" y2="1"><stop offset="0" stop-color="#e7d3a1"/><stop offset="0.5" stop-color="#c2a25a"/><stop offset="1" stop-color="#a8853c"/></linearGradient>
  </defs>
  <rect width="64" height="64" rx="13" fill="url(#ds3bg)"/>
  <rect x="2" y="2" width="60" height="60" rx="11" fill="none" stroke="url(#ds3gold)" stroke-width="1.4"/>
  <!-- Mazo del juez (gavel) -->
  <g fill="none" stroke="url(#ds3gold)" stroke-linecap="round" stroke-linejoin="round">
    <rect x="29" y="11" width="20" height="9.5" rx="2.3" transform="rotate(45 39 15.5)" stroke-width="2.6"/>
    <path d="M32.5 14 L39.5 21 M43 10.5 L50 17.5" stroke-width="1.5"/>
    <path d="M29 25 L18 36" stroke-width="2.8"/>
    <path d="M14 42 L33 42" stroke-width="3.2"/>
    <path d="M18 38 L29 38" stroke-width="2"/>
  </g>
  <!-- Senal / pulso digital bajo el mazo (ingenieria en sistemas) -->
  <g fill="none" stroke="url(#ds3gold)" stroke-width="1.8" stroke-linecap="round" stroke-linejoin="round">
    <path d="M11 50 L20 50 L24 44 L30 54 L34 50 L40 50 L43 46 L46 50 L53 50"/>
  </g>
  <circle cx="11" cy="50" r="1.5" fill="url(#ds3gold)"/>
  <circle cx="53" cy="50" r="1.5" fill="url(#ds3gold)"/>
  <text x="32" y="61" text-anchor="middle" font-family="Georgia, serif" font-size="6.2" font-weight="700" letter-spacing="2" fill="url(#ds3gold)">LEXFIVE</text>
</svg>
