<svg xmlns="http://www.w3.org/2000/svg" viewBox="0 0 64 64" role="img" aria-label="LexFive - Columnas de justicia con circuito">
  <defs>
    <linearGradient id="ds4bg" x1="0" y1="0" x2="0" y2="1"><stop offset="0" stop-color="#16273d"/><stop offset="1" stop-color="#0e1b2c"/></linearGradient>
    <linearGradient id="ds4gold" x1="0" y1="0" x2="1" y2="1"><stop offset="0" stop-color="#e7d3a1"/><stop offset="0.5" stop-color="#c2a25a"/><stop offset="1" stop-color="#a8853c"/></linearGradient>
  </defs>
  <rect width="64" height="64" rx="13" fill="url(#ds4bg)"/>
  <rect x="2" y="2" width="60" height="60" rx="11" fill="none" stroke="url(#ds4gold)" stroke-width="1.4"/>
  <!-- Fronton del templo de justicia -->
  <g fill="none" stroke="url(#ds4gold)" stroke-linecap="round" stroke-linejoin="round">
    <path d="M14 19 L32 10 L50 19" stroke-width="2.6"/>
    <path d="M13 19 L51 19" stroke-width="2.2"/>
  </g>
  <!-- Circuito dentro del timpano (ingenieria en sistemas) -->
  <g fill="none" stroke="url(#ds4gold)" stroke-width="1" stroke-linecap="round" stroke-linejoin="round" opacity="0.85">
    <path d="M32 13 L32 17 M28 17 L28 15 L24 15 M36 17 L36 15 L40 15"/>
  </g>
  <g fill="url(#ds4gold)" opacity="0.85">
    <circle cx="32" cy="13" r="1.3"/><circle cx="24" cy="15" r="1.2"/><circle cx="40" cy="15" r="1.2"/>
  </g>
  <!-- Columnas -->
  <g fill="none" stroke="url(#ds4gold)" stroke-linecap="round" stroke-linejoin="round">
    <path d="M16 22 L48 22" stroke-width="1.8"/>
    <path d="M19 24 L19 43 M27 24 L27 43 M37 24 L37 43 M45 24 L45 43" stroke-width="2.6"/>
    <path d="M14 44 L50 44" stroke-width="3"/>
    <path d="M11 49 L53 49" stroke-width="3.2"/>
  </g>
  <text x="32" y="61" text-anchor="middle" font-family="Georgia, serif" font-size="6.4" font-weight="700" letter-spacing="2" fill="url(#ds4gold)">LEXFIVE</text>
</svg>
