<svg xmlns="http://www.w3.org/2000/svg" viewBox="0 0 64 64" role="img" aria-label="LexFive - Templo de justicia con circuito">
  <defs>
    <linearGradient id="l4bg" x1="0" y1="0" x2="0" y2="1"><stop offset="0" stop-color="#1a2f49"/><stop offset="1" stop-color="#0d1826"/></linearGradient>
    <linearGradient id="l4gold" x1="0" y1="0" x2="0" y2="1"><stop offset="0" stop-color="#ecdcb2"/><stop offset="0.45" stop-color="#cba765"/><stop offset="1" stop-color="#a07f3a"/></linearGradient>
  </defs>
  <rect width="64" height="64" rx="14" fill="url(#l4bg)"/>
  <rect x="3.25" y="3.25" width="57.5" height="57.5" rx="11" fill="none" stroke="url(#l4gold)" stroke-width="0.8" opacity="0.55"/>
  <circle cx="32" cy="26" r="17.5" fill="none" stroke="url(#l4gold)" stroke-width="1.4"/>
  <g fill="none" stroke="url(#l4gold)" stroke-width="1.9" stroke-linecap="round" stroke-linejoin="round">
    <!-- Fronton -->
    <path d="M19 21.5 L32 14 L45 21.5"/>
    <path d="M18 21.5 L46 21.5" stroke-width="1.5"/>
    <!-- Columnas simetricas -->
    <path d="M22.5 24 L22.5 35 M28.8 24 L28.8 35 M35.2 24 L35.2 35 M41.5 24 L41.5 35" stroke-width="2.1"/>
    <path d="M20.5 24 L43.5 24" stroke-width="1.4"/>
    <path d="M19.5 37 L44.5 37" stroke-width="1.5"/>
  </g>
  <!-- Base de circuito (Ingenieria en Sistemas) -->
  <g fill="none" stroke="url(#l4gold)" stroke-width="1" stroke-linecap="round" stroke-linejoin="round" opacity="0.85">
    <path d="M22 40.5 L28 40.5 M36 40.5 L42 40.5 M32 37 L32 40.5"/>
  </g>
  <g fill="url(#l4gold)" opacity="0.85"><circle cx="22" cy="40.5" r="1.2"/><circle cx="42" cy="40.5" r="1.2"/><circle cx="32" cy="40.5" r="1.4"/></g>
  <text x="32" y="58.6" text-anchor="middle" font-family="Georgia, 'Times New Roman', serif" font-size="8" font-weight="700" letter-spacing="3" fill="url(#l4gold)">LEXFIVE</text>
</svg>
