<svg xmlns="http://www.w3.org/2000/svg" viewBox="0 0 64 64" role="img" aria-label="LexFive - Balanza dentro de un microchip">
  <defs>
    <linearGradient id="l5bg" x1="0" y1="0" x2="0" y2="1"><stop offset="0" stop-color="#1a2f49"/><stop offset="1" stop-color="#0d1826"/></linearGradient>
    <linearGradient id="l5gold" x1="0" y1="0" x2="0" y2="1"><stop offset="0" stop-color="#ecdcb2"/><stop offset="0.45" stop-color="#cba765"/><stop offset="1" stop-color="#a07f3a"/></linearGradient>
  </defs>
  <rect width="64" height="64" rx="14" fill="url(#l5bg)"/>
  <rect x="3.25" y="3.25" width="57.5" height="57.5" rx="11" fill="none" stroke="url(#l5gold)" stroke-width="0.8" opacity="0.55"/>
  <!-- Microchip (Ingenieria en Sistemas) -->
  <g fill="none" stroke="url(#l5gold)" stroke-width="1.6" stroke-linecap="round" stroke-linejoin="round">
    <rect x="19" y="13" width="26" height="26" rx="3.5"/>
    <path d="M25 13 L25 9.5 M32 13 L32 9.5 M39 13 L39 9.5"/>
    <path d="M25 39 L25 42.5 M32 39 L32 42.5 M39 39 L39 42.5"/>
    <path d="M19 20 L15.5 20 M19 26 L15.5 26 M19 32 L15.5 32"/>
    <path d="M45 20 L48.5 20 M45 26 L48.5 26 M45 32 L48.5 32"/>
  </g>
  <!-- Balanza centrada dentro del chip (Derecho) -->
  <g fill="none" stroke="url(#l5gold)" stroke-width="1.6" stroke-linecap="round" stroke-linejoin="round">
    <path d="M32 18 L32 34"/>
    <path d="M24 22 L40 22"/>
    <path d="M24 22 L21.5 27 M24 22 L26.5 27"/>
    <path d="M40 22 L37.5 27 M40 22 L42.5 27"/>
    <path d="M20.5 27 Q24 30.8 27.5 27"/>
    <path d="M36.5 27 Q40 30.8 43.5 27"/>
    <path d="M28 34 L36 34"/>
  </g>
  <circle cx="32" cy="17.4" r="1.7" fill="url(#l5gold)"/>
  <circle cx="32" cy="22" r="1.2" fill="url(#l5gold)"/>
  <text x="32" y="58.6" text-anchor="middle" font-family="Georgia, 'Times New Roman', serif" font-size="8" font-weight="700" letter-spacing="3" fill="url(#l5gold)">LEXFIVE</text>
</svg>
