<svg xmlns="http://www.w3.org/2000/svg" viewBox="0 0 64 64" role="img" aria-label="LexFive - Balanza clásica">
  <defs>
    <linearGradient id="l1bg" x1="0" y1="0" x2="0" y2="1"><stop offset="0" stop-color="#16273d"/><stop offset="1" stop-color="#0e1b2c"/></linearGradient>
    <linearGradient id="l1gold" x1="0" y1="0" x2="1" y2="1"><stop offset="0" stop-color="#e7d3a1"/><stop offset="0.5" stop-color="#c2a25a"/><stop offset="1" stop-color="#a8853c"/></linearGradient>
  </defs>
  <rect width="64" height="64" rx="13" fill="url(#l1bg)"/>
  <rect x="2" y="2" width="60" height="60" rx="11" fill="none" stroke="url(#l1gold)" stroke-width="1.4"/>
  <g fill="none" stroke="url(#l1gold)" stroke-linecap="round" stroke-linejoin="round">
    <!-- Balanza grande de la justicia -->
    <path d="M32 11 L32 45" stroke-width="2.8"/>
    <path d="M17 18 L47 18" stroke-width="2.8"/>
    <path d="M17 18 L11 29 M17 18 L23 29" stroke-width="1.5"/>
    <path d="M47 18 L41 29 M47 18 L53 29" stroke-width="1.5"/>
    <path d="M9 29 Q17 39 25 29" stroke-width="2.2"/>
    <path d="M39 29 Q47 39 55 29" stroke-width="2.2"/>
    <path d="M23 45 L41 45" stroke-width="3.2"/>
    <path d="M26 49 L38 49" stroke-width="2.4"/>
  </g>
  <circle cx="32" cy="10" r="3" fill="url(#l1gold)"/>
  <text x="32" y="61" text-anchor="middle" font-family="Georgia, serif" font-size="6.6" font-weight="700" letter-spacing="2.5" fill="url(#l1gold)">LEXFIVE</text>
</svg>
