<svg xmlns="http://www.w3.org/2000/svg" viewBox="0 0 64 64" role="img" aria-label="LexFive opción 1">
  <defs>
    <linearGradient id="o1bg" x1="0" y1="0" x2="0" y2="1"><stop offset="0" stop-color="#16273d"/><stop offset="1" stop-color="#0e1b2c"/></linearGradient>
    <linearGradient id="o1gold" x1="0" y1="0" x2="1" y2="1"><stop offset="0" stop-color="#e7d3a1"/><stop offset="0.5" stop-color="#c2a25a"/><stop offset="1" stop-color="#a8853c"/></linearGradient>
  </defs>
  <rect width="64" height="64" rx="13" fill="url(#o1bg)"/>
  <rect x="2" y="2" width="60" height="60" rx="11" fill="none" stroke="url(#o1gold)" stroke-width="1.4"/>
  <g fill="none" stroke="url(#o1gold)" stroke-linecap="round" stroke-linejoin="round">
    <!-- Corchetes de codigo grandes (tecnologia) -->
    <path d="M14 14 L6 32 L14 50" stroke-width="2.6" opacity="0.8"/>
    <path d="M50 14 L58 32 L50 50" stroke-width="2.6" opacity="0.8"/>
    <!-- Balanza GRANDE (derecho) -->
    <path d="M32 11 L32 46" stroke-width="2.8"/>
    <path d="M19 18 L45 18" stroke-width="2.8"/>
    <!-- cadenas -->
    <path d="M19 18 L14 28 M19 18 L24 28" stroke-width="1.5"/>
    <path d="M45 18 L40 28 M45 18 L50 28" stroke-width="1.5"/>
    <!-- platillos grandes -->
    <path d="M12 28 Q19 37 26 28" stroke-width="2.2"/>
    <path d="M38 28 Q45 37 52 28" stroke-width="2.2"/>
    <!-- base -->
    <path d="M24 46 L40 46" stroke-width="3.2"/>
    <path d="M27 50 L37 50" stroke-width="2.4"/>
  </g>
  <circle cx="32" cy="10" r="3" fill="url(#o1gold)"/>
  <!-- Identidad L5 -->
  <text x="32" y="61.5" text-anchor="middle" font-family="Georgia, serif" font-size="7" font-weight="700" letter-spacing="2" fill="url(#o1gold)">LEXFIVE</text>
</svg>
