<svg xmlns="http://www.w3.org/2000/svg" viewBox="0 0 64 64" role="img" aria-label="LexFive opción 2">
  <defs>
    <linearGradient id="o2bg" x1="0" y1="0" x2="0" y2="1"><stop offset="0" stop-color="#16273d"/><stop offset="1" stop-color="#0e1b2c"/></linearGradient>
    <linearGradient id="o2gold" x1="0" y1="0" x2="1" y2="1"><stop offset="0" stop-color="#e7d3a1"/><stop offset="0.5" stop-color="#c2a25a"/><stop offset="1" stop-color="#a8853c"/></linearGradient>
  </defs>
  <rect width="64" height="64" rx="13" fill="url(#o2bg)"/>
  <rect x="2" y="2" width="60" height="60" rx="11" fill="none" stroke="url(#o2gold)" stroke-width="1.4"/>
  <!-- "L5" grande como identidad -->
  <text x="31" y="34" text-anchor="middle" font-family="Georgia, 'Times New Roman', serif" font-size="26" font-weight="700" fill="url(#o2gold)">L5</text>
  <!-- Balanza GRANDE integrada bajo el monograma (derecho) -->
  <g fill="none" stroke="url(#o2gold)" stroke-linecap="round" stroke-linejoin="round">
    <path d="M32 36 L32 47" stroke-width="2.4"/>
    <path d="M20 39 L44 39" stroke-width="2.4"/>
    <path d="M14 39 Q20 46 26 39" stroke-width="1.8"/>
    <path d="M38 39 Q44 46 50 39" stroke-width="1.8"/>
    <path d="M26 47 L38 47" stroke-width="2.8"/>
  </g>
  <circle cx="32" cy="36" r="2.1" fill="url(#o2gold)"/>
  <!-- nodos de circuito (tecnologia) -->
  <g fill="url(#o2gold)"><circle cx="9" cy="20" r="1.5"/><circle cx="55" cy="20" r="1.5"/></g>
  <g stroke="url(#o2gold)" stroke-width="1" opacity="0.6"><path d="M9 20 L15 20 M55 20 L49 20"/></g>
  <text x="32" y="60.5" text-anchor="middle" font-family="Georgia, serif" font-size="6.5" font-weight="700" letter-spacing="2" fill="url(#o2gold)">LEXFIVE</text>
</svg>
