<svg xmlns="http://www.w3.org/2000/svg" viewBox="0 0 64 64" role="img" aria-label="LexFive - Libro de leyes y balanza">
  <defs>
    <linearGradient id="l5bg" x1="0" y1="0" x2="0" y2="1"><stop offset="0" stop-color="#16273d"/><stop offset="1" stop-color="#0e1b2c"/></linearGradient>
    <linearGradient id="l5gold" x1="0" y1="0" x2="1" y2="1"><stop offset="0" stop-color="#e7d3a1"/><stop offset="0.5" stop-color="#c2a25a"/><stop offset="1" stop-color="#a8853c"/></linearGradient>
  </defs>
  <rect width="64" height="64" rx="13" fill="url(#l5bg)"/>
  <rect x="2" y="2" width="60" height="60" rx="11" fill="none" stroke="url(#l5gold)" stroke-width="1.4"/>
  <!-- Balanza grande arriba -->
  <g fill="none" stroke="url(#l5gold)" stroke-linecap="round" stroke-linejoin="round">
    <path d="M32 10 L32 33" stroke-width="2.6"/>
    <path d="M19 16 L45 16" stroke-width="2.6"/>
    <path d="M19 16 L14 25 M19 16 L24 25" stroke-width="1.4"/>
    <path d="M45 16 L40 25 M45 16 L50 25" stroke-width="1.4"/>
    <path d="M12 25 Q19 33 26 25" stroke-width="2"/>
    <path d="M38 25 Q45 33 52 25" stroke-width="2"/>
  </g>
  <circle cx="32" cy="9" r="2.6" fill="url(#l5gold)"/>
  <!-- Libro de leyes abierto en la base -->
  <g fill="none" stroke="url(#l5gold)" stroke-linecap="round" stroke-linejoin="round">
    <path d="M32 36 L16 39 L16 49 L32 46 Z" stroke-width="2"/>
    <path d="M32 36 L48 39 L48 49 L32 46 Z" stroke-width="2"/>
    <path d="M32 36 L32 46" stroke-width="1.6"/>
    <path d="M20 41.5 L28 40.2 M20 44 L28 42.7" stroke-width="1" opacity="0.8"/>
    <path d="M36 40.2 L44 41.5 M36 42.7 L44 44" stroke-width="1" opacity="0.8"/>
  </g>
  <text x="32" y="61" text-anchor="middle" font-family="Georgia, serif" font-size="6.2" font-weight="700" letter-spacing="2" fill="url(#l5gold)">LEXFIVE</text>
</svg>
