<svg xmlns="http://www.w3.org/2000/svg" viewBox="0 0 64 64" role="img" aria-label="LexFive - Monograma L5 con balanza">
  <defs>
    <linearGradient id="l2bg" x1="0" y1="0" x2="0" y2="1"><stop offset="0" stop-color="#16273d"/><stop offset="1" stop-color="#0e1b2c"/></linearGradient>
    <linearGradient id="l2gold" x1="0" y1="0" x2="1" y2="1"><stop offset="0" stop-color="#e7d3a1"/><stop offset="0.5" stop-color="#c2a25a"/><stop offset="1" stop-color="#a8853c"/></linearGradient>
  </defs>
  <rect width="64" height="64" rx="13" fill="url(#l2bg)"/>
  <rect x="2" y="2" width="60" height="60" rx="11" fill="none" stroke="url(#l2gold)" stroke-width="1.4"/>
  <!-- Ramas de laurel a los lados (tradición jurídica) -->
  <g fill="none" stroke="url(#l2gold)" stroke-width="1.3" stroke-linecap="round" opacity="0.75">
    <path d="M13 44 Q10 33 14 22"/>
    <path d="M13 40 L9 38 M13.5 35 L9.5 33 M14.5 30 L10.5 28 M16 25 L12.5 23"/>
    <path d="M51 44 Q54 33 50 22"/>
    <path d="M51 40 L55 38 M50.5 35 L54.5 33 M49.5 30 L53.5 28 M48 25 L51.5 23"/>
  </g>
  <!-- Monograma L5 grande -->
  <text x="32" y="36" text-anchor="middle" font-family="Georgia, 'Times New Roman', serif" font-size="27" font-weight="700" fill="url(#l2gold)">L5</text>
  <!-- Balanza integrada debajo -->
  <g fill="none" stroke="url(#l2gold)" stroke-linecap="round" stroke-linejoin="round">
    <path d="M32 38 L32 47" stroke-width="2.2"/>
    <path d="M23 41 L41 41" stroke-width="2.2"/>
    <path d="M18 41 Q23 47 28 41" stroke-width="1.6"/>
    <path d="M36 41 Q41 47 46 41" stroke-width="1.6"/>
    <path d="M27 47 L37 47" stroke-width="2.4"/>
  </g>
  <text x="32" y="60.5" text-anchor="middle" font-family="Georgia, serif" font-size="6.2" font-weight="700" letter-spacing="2" fill="url(#l2gold)">LEXFIVE</text>
</svg>
